<mxfile host="www.draw.io" modified="2020-02-17T08:14:11.117Z" agent="Mozilla/5.0 (Macintosh; Intel Mac OS X 10_14_6) AppleWebKit/537.36 (KHTML, like Gecko) Chrome/80.0.3987.100 Safari/537.36" etag="8HqffH5IXot6V7molTqR" version="12.7.0" type="github">
  <diagram id="8aQXJ93qoCxyrmPHfEDO" name="Page-1">
    <mxGraphModel dx="786" dy="440" grid="1" gridSize="10" guides="1" tooltips="1" connect="1" arrows="1" fold="1" page="1" pageScale="1" pageWidth="827" pageHeight="1169" math="0" shadow="0">
      <root>
        <mxCell id="0"/>
        <mxCell id="1" parent="0"/>
        <mxCell id="5Dk1n0JzbFBlm4KnKVOn-9" style="edgeStyle=orthogonalEdgeStyle;rounded=0;orthogonalLoop=1;jettySize=auto;html=1;" parent="1" edge="1">
          <mxGeometry relative="1" as="geometry">
            <mxPoint x="550" y="400" as="sourcePoint"/>
          </mxGeometry>
        </mxCell>
        <mxCell id="5Dk1n0JzbFBlm4KnKVOn-10" style="edgeStyle=orthogonalEdgeStyle;rounded=0;orthogonalLoop=1;jettySize=auto;html=1;" parent="1" edge="1">
          <mxGeometry relative="1" as="geometry">
            <mxPoint x="550" y="470" as="sourcePoint"/>
          </mxGeometry>
        </mxCell>
        <mxCell id="5Dk1n0JzbFBlm4KnKVOn-12" style="edgeStyle=orthogonalEdgeStyle;rounded=0;orthogonalLoop=1;jettySize=auto;html=1;entryX=0.5;entryY=1;entryDx=0;entryDy=0;" parent="1" edge="1">
          <mxGeometry relative="1" as="geometry">
            <mxPoint x="530" y="420" as="targetPoint"/>
          </mxGeometry>
        </mxCell>
        <mxCell id="5Dk1n0JzbFBlm4KnKVOn-11" style="edgeStyle=orthogonalEdgeStyle;rounded=0;orthogonalLoop=1;jettySize=auto;html=1;entryX=0.5;entryY=1;entryDx=0;entryDy=0;" parent="1" edge="1">
          <mxGeometry relative="1" as="geometry">
            <mxPoint x="630" y="420" as="targetPoint"/>
          </mxGeometry>
        </mxCell>
        <mxCell id="yQ2W42olNtdtz4TTbdoB-5" value="" style="outlineConnect=0;dashed=0;verticalLabelPosition=bottom;verticalAlign=top;align=center;html=1;shape=mxgraph.aws3.android;fillColor=#205E00;gradientColor=none;" parent="1" vertex="1">
          <mxGeometry x="198.25" y="80" width="73.5" height="84" as="geometry"/>
        </mxCell>
        <mxCell id="yQ2W42olNtdtz4TTbdoB-6" value="" style="shape=image;html=1;verticalAlign=top;verticalLabelPosition=bottom;labelBackgroundColor=#ffffff;imageAspect=0;aspect=fixed;image=https://cdn1.iconfinder.com/data/icons/IconsLandVistaPeopleIconsDemo/128/Client_Male_Dark.png" parent="1" vertex="1">
          <mxGeometry x="338" y="81" width="82" height="82" as="geometry"/>
        </mxCell>
        <mxCell id="yQ2W42olNtdtz4TTbdoB-7" value="" style="shape=image;html=1;verticalAlign=top;verticalLabelPosition=bottom;labelBackgroundColor=#ffffff;imageAspect=0;aspect=fixed;image=https://cdn1.iconfinder.com/data/icons/IconsLandVistaPeopleIconsDemo/128/Client_Female_Light.png" parent="1" vertex="1">
          <mxGeometry x="55" y="82" width="80" height="80" as="geometry"/>
        </mxCell>
        <mxCell id="yQ2W42olNtdtz4TTbdoB-10" value="&lt;b&gt;Application / SDK&lt;/b&gt;" style="text;html=1;align=center;verticalAlign=middle;resizable=0;points=[];autosize=1;" parent="1" vertex="1">
          <mxGeometry x="175" y="60" width="120" height="20" as="geometry"/>
        </mxCell>
        <mxCell id="yQ2W42olNtdtz4TTbdoB-33" value="" style="rounded=1;whiteSpace=wrap;html=1;fillColor=#dae8fc;strokeColor=#6c8ebf;" parent="1" vertex="1">
          <mxGeometry x="40" y="210" width="380" height="320" as="geometry"/>
        </mxCell>
        <mxCell id="yQ2W42olNtdtz4TTbdoB-34" value="" style="rounded=1;whiteSpace=wrap;html=1;fillColor=#1ba1e2;strokeColor=#006EAF;fontColor=#ffffff;" parent="1" vertex="1">
          <mxGeometry x="230" y="380" width="160" height="130" as="geometry"/>
        </mxCell>
        <mxCell id="yQ2W42olNtdtz4TTbdoB-35" value="" style="endArrow=none;html=1;" parent="1" edge="1">
          <mxGeometry width="50" height="50" relative="1" as="geometry">
            <mxPoint x="350" y="470" as="sourcePoint"/>
            <mxPoint x="270" y="420" as="targetPoint"/>
          </mxGeometry>
        </mxCell>
        <mxCell id="yQ2W42olNtdtz4TTbdoB-36" value="" style="endArrow=none;html=1;exitX=0.25;exitY=1;exitDx=0;exitDy=0;" parent="1" edge="1">
          <mxGeometry width="50" height="50" relative="1" as="geometry">
            <mxPoint x="350" y="424" as="sourcePoint"/>
            <mxPoint x="280" y="462.8888888888889" as="targetPoint"/>
          </mxGeometry>
        </mxCell>
        <mxCell id="yQ2W42olNtdtz4TTbdoB-37" style="edgeStyle=orthogonalEdgeStyle;rounded=0;orthogonalLoop=1;jettySize=auto;html=1;entryX=0;entryY=0.5;entryDx=0;entryDy=0;strokeColor=#000000;endArrow=none;endFill=0;" parent="1" source="yQ2W42olNtdtz4TTbdoB-38" target="yQ2W42olNtdtz4TTbdoB-42" edge="1">
          <mxGeometry relative="1" as="geometry"/>
        </mxCell>
        <mxCell id="yQ2W42olNtdtz4TTbdoB-38" value="&lt;b&gt;&lt;font style=&quot;font-size: 18px&quot;&gt;O&lt;/font&gt;&lt;/b&gt;" style="rounded=1;whiteSpace=wrap;html=1;fillColor=#008a00;strokeColor=#005700;fontColor=#ffffff;" parent="1" vertex="1">
          <mxGeometry x="240" y="390" width="40" height="40" as="geometry"/>
        </mxCell>
        <mxCell id="yQ2W42olNtdtz4TTbdoB-39" style="edgeStyle=orthogonalEdgeStyle;rounded=0;orthogonalLoop=1;jettySize=auto;html=1;exitX=0.5;exitY=0;exitDx=0;exitDy=0;endArrow=none;endFill=0;strokeColor=#000000;" parent="1" source="yQ2W42olNtdtz4TTbdoB-40" target="yQ2W42olNtdtz4TTbdoB-38" edge="1">
          <mxGeometry relative="1" as="geometry"/>
        </mxCell>
        <mxCell id="yQ2W42olNtdtz4TTbdoB-40" value="&lt;b&gt;&lt;font style=&quot;font-size: 18px&quot;&gt;O&lt;/font&gt;&lt;/b&gt;" style="rounded=1;whiteSpace=wrap;html=1;fillColor=#008a00;strokeColor=#005700;fontColor=#ffffff;" parent="1" vertex="1">
          <mxGeometry x="240" y="460" width="40" height="40" as="geometry"/>
        </mxCell>
        <mxCell id="yQ2W42olNtdtz4TTbdoB-41" style="edgeStyle=orthogonalEdgeStyle;rounded=0;orthogonalLoop=1;jettySize=auto;html=1;exitX=0.5;exitY=1;exitDx=0;exitDy=0;endArrow=none;endFill=0;strokeColor=#000000;" parent="1" source="yQ2W42olNtdtz4TTbdoB-42" target="yQ2W42olNtdtz4TTbdoB-44" edge="1">
          <mxGeometry relative="1" as="geometry"/>
        </mxCell>
        <mxCell id="yQ2W42olNtdtz4TTbdoB-42" value="&lt;b&gt;&lt;font style=&quot;font-size: 18px&quot;&gt;O&lt;/font&gt;&lt;/b&gt;" style="rounded=1;whiteSpace=wrap;html=1;fillColor=#008a00;strokeColor=#005700;fontColor=#ffffff;" parent="1" vertex="1">
          <mxGeometry x="340" y="390" width="40" height="40" as="geometry"/>
        </mxCell>
        <mxCell id="yQ2W42olNtdtz4TTbdoB-43" style="edgeStyle=orthogonalEdgeStyle;rounded=0;orthogonalLoop=1;jettySize=auto;html=1;exitX=0;exitY=0.5;exitDx=0;exitDy=0;endArrow=none;endFill=0;strokeColor=#000000;" parent="1" source="yQ2W42olNtdtz4TTbdoB-44" target="yQ2W42olNtdtz4TTbdoB-40" edge="1">
          <mxGeometry relative="1" as="geometry"/>
        </mxCell>
        <mxCell id="yQ2W42olNtdtz4TTbdoB-44" value="&lt;b&gt;&lt;font style=&quot;font-size: 18px&quot;&gt;O&lt;/font&gt;&lt;/b&gt;" style="rounded=1;whiteSpace=wrap;html=1;fillColor=#008a00;strokeColor=#005700;fontColor=#ffffff;" parent="1" vertex="1">
          <mxGeometry x="340" y="460" width="40" height="40" as="geometry"/>
        </mxCell>
        <mxCell id="yQ2W42olNtdtz4TTbdoB-45" value="&lt;b&gt;&lt;font style=&quot;font-size: 18px&quot;&gt;E0&lt;/font&gt;&lt;/b&gt;" style="rounded=1;whiteSpace=wrap;html=1;fillColor=#b1ddf0;strokeColor=#10739e;" parent="1" vertex="1">
          <mxGeometry x="60" y="240" width="70" height="60" as="geometry"/>
        </mxCell>
        <mxCell id="yQ2W42olNtdtz4TTbdoB-46" value="&lt;font size=&quot;1&quot;&gt;&lt;b style=&quot;font-size: 18px&quot;&gt;E1&lt;/b&gt;&lt;/font&gt;" style="rounded=1;whiteSpace=wrap;html=1;fillColor=#b1ddf0;strokeColor=#10739e;" parent="1" vertex="1">
          <mxGeometry x="200" y="240" width="70" height="60" as="geometry"/>
        </mxCell>
        <mxCell id="yQ2W42olNtdtz4TTbdoB-47" value="&lt;b&gt;&lt;font style=&quot;font-size: 18px&quot;&gt;E2&lt;/font&gt;&lt;/b&gt;" style="rounded=1;whiteSpace=wrap;html=1;fillColor=#b1ddf0;strokeColor=#10739e;" parent="1" vertex="1">
          <mxGeometry x="330" y="240" width="70" height="60" as="geometry"/>
        </mxCell>
        <mxCell id="yQ2W42olNtdtz4TTbdoB-48" value="" style="shape=image;html=1;verticalAlign=top;verticalLabelPosition=bottom;labelBackgroundColor=#ffffff;imageAspect=0;aspect=fixed;image=https://cdn2.iconfinder.com/data/icons/ledicons/link.png" parent="1" vertex="1">
          <mxGeometry x="94" y="292" width="36" height="36" as="geometry"/>
        </mxCell>
        <mxCell id="yQ2W42olNtdtz4TTbdoB-49" value="" style="shape=image;html=1;verticalAlign=top;verticalLabelPosition=bottom;labelBackgroundColor=#ffffff;imageAspect=0;aspect=fixed;image=https://cdn2.iconfinder.com/data/icons/ledicons/link.png" parent="1" vertex="1">
          <mxGeometry x="234" y="292" width="36" height="36" as="geometry"/>
        </mxCell>
        <mxCell id="yQ2W42olNtdtz4TTbdoB-50" value="" style="shape=image;html=1;verticalAlign=top;verticalLabelPosition=bottom;labelBackgroundColor=#ffffff;imageAspect=0;aspect=fixed;image=https://cdn2.iconfinder.com/data/icons/ledicons/link.png" parent="1" vertex="1">
          <mxGeometry x="364" y="292" width="36" height="36" as="geometry"/>
        </mxCell>
        <mxCell id="yQ2W42olNtdtz4TTbdoB-51" value="&lt;b&gt;&lt;font style=&quot;font-size: 18px&quot;&gt;P0&lt;/font&gt;&lt;/b&gt;" style="rounded=1;whiteSpace=wrap;html=1;fillColor=#bac8d3;strokeColor=#23445d;" parent="1" vertex="1">
          <mxGeometry x="60" y="336" width="70" height="60" as="geometry"/>
        </mxCell>
        <mxCell id="yQ2W42olNtdtz4TTbdoB-52" value="&lt;b&gt;&lt;font style=&quot;font-size: 18px&quot;&gt;P1&lt;/font&gt;&lt;/b&gt;" style="rounded=1;whiteSpace=wrap;html=1;fillColor=#bac8d3;strokeColor=#23445d;" parent="1" vertex="1">
          <mxGeometry x="60" y="432" width="70" height="60" as="geometry"/>
        </mxCell>
        <mxCell id="yQ2W42olNtdtz4TTbdoB-53" value="" style="shape=image;html=1;verticalAlign=top;verticalLabelPosition=bottom;labelBackgroundColor=#ffffff;imageAspect=0;aspect=fixed;image=https://cdn2.iconfinder.com/data/icons/ledicons/link.png" parent="1" vertex="1">
          <mxGeometry x="94" y="390" width="36" height="36" as="geometry"/>
        </mxCell>
        <mxCell id="yQ2W42olNtdtz4TTbdoB-54" value="" style="shape=image;html=1;verticalAlign=top;verticalLabelPosition=bottom;labelBackgroundColor=#ffffff;imageAspect=0;aspect=fixed;image=https://cdn2.iconfinder.com/data/icons/ledicons/link.png" parent="1" vertex="1">
          <mxGeometry x="94" y="486" width="36" height="36" as="geometry"/>
        </mxCell>
        <mxCell id="yQ2W42olNtdtz4TTbdoB-55" value="&lt;b&gt;&lt;font style=&quot;font-size: 18px&quot;&gt;Fabric Network&lt;/font&gt;&lt;/b&gt;" style="text;html=1;align=center;verticalAlign=middle;resizable=0;points=[];autosize=1;" parent="1" vertex="1">
          <mxGeometry x="155" y="540" width="150" height="20" as="geometry"/>
        </mxCell>
        <mxCell id="yQ2W42olNtdtz4TTbdoB-56" value="&lt;b&gt;&lt;font style=&quot;font-size: 18px&quot;&gt;E&lt;/font&gt;&lt;/b&gt;" style="rounded=1;whiteSpace=wrap;html=1;fillColor=#b1ddf0;strokeColor=#10739e;" parent="1" vertex="1">
          <mxGeometry x="460" y="220" width="60" height="50" as="geometry"/>
        </mxCell>
        <mxCell id="yQ2W42olNtdtz4TTbdoB-57" value="&lt;b&gt;&lt;font style=&quot;font-size: 18px&quot;&gt;P&lt;/font&gt;&lt;/b&gt;" style="rounded=1;whiteSpace=wrap;html=1;fillColor=#bac8d3;strokeColor=#23445d;" parent="1" vertex="1">
          <mxGeometry x="460" y="285" width="60" height="50" as="geometry"/>
        </mxCell>
        <mxCell id="yQ2W42olNtdtz4TTbdoB-58" value="&lt;b&gt;&lt;font style=&quot;font-size: 18px&quot;&gt;O&lt;/font&gt;&lt;/b&gt;" style="rounded=1;whiteSpace=wrap;html=1;fillColor=#008a00;strokeColor=#005700;fontColor=#ffffff;" parent="1" vertex="1">
          <mxGeometry x="460" y="350" width="60" height="50" as="geometry"/>
        </mxCell>
        <mxCell id="yQ2W42olNtdtz4TTbdoB-59" value="&lt;b&gt;Peer &lt;br&gt;Endorser&lt;/b&gt;" style="text;html=1;align=center;verticalAlign=middle;resizable=0;points=[];autosize=1;" parent="1" vertex="1">
          <mxGeometry x="530" y="230" width="70" height="30" as="geometry"/>
        </mxCell>
        <mxCell id="yQ2W42olNtdtz4TTbdoB-60" value="&lt;b&gt;Peer&lt;br&gt;Commiter&lt;/b&gt;" style="text;html=1;align=center;verticalAlign=middle;resizable=0;points=[];autosize=1;" parent="1" vertex="1">
          <mxGeometry x="530" y="295" width="70" height="30" as="geometry"/>
        </mxCell>
        <mxCell id="yQ2W42olNtdtz4TTbdoB-61" value="&lt;b&gt;Orderer&lt;/b&gt;" style="text;html=1;align=center;verticalAlign=middle;resizable=0;points=[];autosize=1;" parent="1" vertex="1">
          <mxGeometry x="535" y="365" width="60" height="20" as="geometry"/>
        </mxCell>
        <mxCell id="yQ2W42olNtdtz4TTbdoB-62" value="&lt;b&gt;&lt;font style=&quot;font-size: 16px&quot;&gt;cc&lt;/font&gt;&lt;/b&gt;" style="rounded=1;whiteSpace=wrap;html=1;fillColor=#fad7ac;strokeColor=#b46504;" parent="1" vertex="1">
          <mxGeometry x="60" y="305" width="30" height="20" as="geometry"/>
        </mxCell>
        <mxCell id="yQ2W42olNtdtz4TTbdoB-63" value="&lt;b&gt;&lt;font style=&quot;font-size: 16px&quot;&gt;cc&lt;/font&gt;&lt;/b&gt;" style="rounded=1;whiteSpace=wrap;html=1;fillColor=#fad7ac;strokeColor=#b46504;" parent="1" vertex="1">
          <mxGeometry x="198.25" y="305" width="30" height="20" as="geometry"/>
        </mxCell>
        <mxCell id="yQ2W42olNtdtz4TTbdoB-64" value="&lt;b&gt;&lt;font style=&quot;font-size: 16px&quot;&gt;cc&lt;/font&gt;&lt;/b&gt;" style="rounded=1;whiteSpace=wrap;html=1;fillColor=#fad7ac;strokeColor=#b46504;" parent="1" vertex="1">
          <mxGeometry x="330" y="305" width="30" height="20" as="geometry"/>
        </mxCell>
        <mxCell id="yQ2W42olNtdtz4TTbdoB-65" value="&lt;b&gt;&lt;font style=&quot;font-size: 16px&quot;&gt;cc&lt;/font&gt;&lt;/b&gt;" style="rounded=1;whiteSpace=wrap;html=1;fillColor=#fad7ac;strokeColor=#b46504;" parent="1" vertex="1">
          <mxGeometry x="60" y="400" width="30" height="20" as="geometry"/>
        </mxCell>
        <mxCell id="yQ2W42olNtdtz4TTbdoB-66" value="&lt;b&gt;&lt;font style=&quot;font-size: 16px&quot;&gt;cc&lt;/font&gt;&lt;/b&gt;" style="rounded=1;whiteSpace=wrap;html=1;fillColor=#fad7ac;strokeColor=#b46504;" parent="1" vertex="1">
          <mxGeometry x="60" y="495" width="30" height="20" as="geometry"/>
        </mxCell>
        <mxCell id="yQ2W42olNtdtz4TTbdoB-67" value="&lt;b&gt;&lt;font style=&quot;font-size: 18px&quot;&gt;cc&lt;/font&gt;&lt;/b&gt;" style="rounded=1;whiteSpace=wrap;html=1;fillColor=#fad7ac;strokeColor=#b46504;" parent="1" vertex="1">
          <mxGeometry x="460" y="410" width="60" height="50" as="geometry"/>
        </mxCell>
        <mxCell id="yQ2W42olNtdtz4TTbdoB-68" value="&lt;b&gt;Chaincode&lt;br&gt;&lt;/b&gt;" style="text;html=1;align=center;verticalAlign=middle;resizable=0;points=[];autosize=1;" parent="1" vertex="1">
          <mxGeometry x="530" y="425" width="80" height="20" as="geometry"/>
        </mxCell>
        <mxCell id="yQ2W42olNtdtz4TTbdoB-69" value="&lt;b&gt;&lt;font style=&quot;font-size: 18px&quot;&gt;EP&lt;/font&gt;&lt;/b&gt;" style="rounded=1;whiteSpace=wrap;html=1;fillColor=#e1d5e7;strokeColor=#9673a6;" parent="1" vertex="1">
          <mxGeometry x="160" y="473" width="50" height="50" as="geometry"/>
        </mxCell>
        <mxCell id="yQ2W42olNtdtz4TTbdoB-70" value="&lt;b&gt;&lt;font style=&quot;font-size: 18px&quot;&gt;EP&lt;/font&gt;&lt;/b&gt;" style="rounded=1;whiteSpace=wrap;html=1;fillColor=#e1d5e7;strokeColor=#9673a6;" parent="1" vertex="1">
          <mxGeometry x="460" y="473" width="60" height="50" as="geometry"/>
        </mxCell>
        <mxCell id="yQ2W42olNtdtz4TTbdoB-71" value="&lt;b&gt;Endorsement&lt;br&gt;Policy&lt;br&gt;&lt;/b&gt;" style="text;html=1;align=center;verticalAlign=middle;resizable=0;points=[];autosize=1;" parent="1" vertex="1">
          <mxGeometry x="530" y="483" width="90" height="30" as="geometry"/>
        </mxCell>
        <mxCell id="Lqs_fph9wfWP0Yw6kcru-20" value="" style="shape=image;html=1;verticalAlign=top;verticalLabelPosition=bottom;labelBackgroundColor=#ffffff;imageAspect=0;aspect=fixed;image=https://cdn2.iconfinder.com/data/icons/basicset/warning_64.png" vertex="1" parent="1">
          <mxGeometry x="83" y="210" width="24" height="24" as="geometry"/>
        </mxCell>
        <mxCell id="Lqs_fph9wfWP0Yw6kcru-21" value="" style="shape=image;html=1;verticalAlign=top;verticalLabelPosition=bottom;labelBackgroundColor=#ffffff;imageAspect=0;aspect=fixed;image=https://cdn2.iconfinder.com/data/icons/basicset/warning_64.png" vertex="1" parent="1">
          <mxGeometry x="223" y="210" width="24" height="24" as="geometry"/>
        </mxCell>
        <mxCell id="Lqs_fph9wfWP0Yw6kcru-22" value="" style="shape=image;html=1;verticalAlign=top;verticalLabelPosition=bottom;labelBackgroundColor=#ffffff;imageAspect=0;aspect=fixed;image=https://cdn2.iconfinder.com/data/icons/basicset/warning_64.png" vertex="1" parent="1">
          <mxGeometry x="353" y="210" width="24" height="24" as="geometry"/>
        </mxCell>
        <mxCell id="Lqs_fph9wfWP0Yw6kcru-23" value="" style="shape=image;html=1;verticalAlign=top;verticalLabelPosition=bottom;labelBackgroundColor=#ffffff;imageAspect=0;aspect=fixed;image=https://cdn2.iconfinder.com/data/icons/basicset/warning_64.png" vertex="1" parent="1">
          <mxGeometry x="136" y="354" width="24" height="24" as="geometry"/>
        </mxCell>
        <mxCell id="Lqs_fph9wfWP0Yw6kcru-24" value="" style="shape=image;html=1;verticalAlign=top;verticalLabelPosition=bottom;labelBackgroundColor=#ffffff;imageAspect=0;aspect=fixed;image=https://cdn2.iconfinder.com/data/icons/basicset/warning_64.png" vertex="1" parent="1">
          <mxGeometry x="136" y="450" width="24" height="24" as="geometry"/>
        </mxCell>
        <mxCell id="Lqs_fph9wfWP0Yw6kcru-25" value="" style="shape=image;html=1;verticalAlign=top;verticalLabelPosition=bottom;labelBackgroundColor=#ffffff;imageAspect=0;aspect=fixed;image=https://cdn2.iconfinder.com/data/icons/basicset/warning_64.png" vertex="1" parent="1">
          <mxGeometry x="223" y="170" width="24" height="24" as="geometry"/>
        </mxCell>
      </root>
    </mxGraphModel>
  </diagram>
</mxfile>
